<?xml version="1.0" standalone="no"?>
<!DOCTYPE svg PUBLIC "-//W3C//DTD SVG 20010904//EN"
 "http://www.w3.org/TR/2001/REC-SVG-20010904/DTD/svg10.dtd">
<svg version="1.0" xmlns="http://www.w3.org/2000/svg"
 width="500.000000pt" height="500.000000pt" viewBox="0 0 500.000000 500.000000"
 preserveAspectRatio="xMidYMid meet">

<g transform="translate(0.000000,500.000000) scale(0.100000,-0.100000)"
fill="lightblue" stroke="none">
<path d="M2815 3838 c-4 -13 -20 -59 -37 -103 -17 -44 -31 -84 -33 -90 -1 -5
-6 -21 -12 -35 -49 -115 -63 -149 -69 -175 -4 -16 -10 -34 -14 -40 -21 -30
-60 -150 -55 -168 4 -15 3 -18 -3 -9 -6 9 -19 -14 -42 -75 -18 -48 -46 -121
-62 -161 -15 -41 -25 -79 -21 -85 3 -7 3 -9 -2 -5 -7 7 -110 -241 -118 -282
-1 -8 -5 -19 -9 -25 -20 -33 -68 -171 -64 -182 3 -8 2 -12 -2 -9 -4 2 -43 -89
-87 -202 -43 -114 -89 -233 -102 -264 -12 -31 -21 -63 -20 -70 2 -7 2 -9 -1
-4 -4 8 -108 -252 -116 -289 -3 -9 -7 -21 -43 -104 -20 -48 -93 -247 -93 -255
0 -4 55 -5 121 -4 96 2 124 6 130 18 5 8 38 94 74 190 37 96 70 184 74 195 5
11 17 40 26 65 10 25 23 59 30 75 11 27 27 72 30 85 1 3 8 21 17 40 14 32 41
108 43 120 0 3 6 14 12 25 6 11 11 23 12 28 0 4 8 24 17 45 9 20 17 47 17 59
1 12 4 19 6 17 8 -8 41 91 36 106 -4 8 -3 11 1 7 9 -8 46 72 39 83 -3 5 -1 10
3 12 5 1 25 46 45 98 19 52 39 104 43 114 6 15 4 18 -7 12 -8 -4 -6 -1 5 8 10
8 15 20 10 27 -5 8 -3 10 6 4 10 -6 12 -3 7 14 -3 13 -3 20 0 17 4 -3 26 44
50 106 25 62 51 128 59 146 8 18 14 39 14 48 0 8 7 26 16 39 9 14 13 25 10 25
-4 0 2 12 11 27 10 15 17 30 16 33 0 3 6 21 14 40 8 19 16 45 16 57 1 11 6 19
11 15 5 -3 7 5 4 16 -4 14 -2 20 5 15 6 -4 8 2 5 15 -4 12 -2 20 3 16 9 -5 13
9 10 34 -1 6 4 12 10 12 7 0 9 3 6 7 -4 3 -3 11 2 17 12 14 61 136 55 136 -2
0 4 17 15 38 10 20 19 39 19 42 0 3 5 16 10 30 72 186 91 243 86 252 -4 7 -2
8 4 4 7 -4 12 -1 12 8 0 14 -18 16 -124 16 -121 0 -125 -1 -131 -22z m8 -553
c-3 -9 -8 -14 -10 -11 -3 3 -2 9 2 15 9 16 15 13 8 -4z m-533 -1419 c0 -3 -4
-8 -10 -11 -5 -3 -10 -1 -10 4 0 6 5 11 10 11 6 0 10 -2 10 -4z"/>
<path d="M1470 3236 c-14 -7 -24 -19 -22 -27 3 -11 1 -11 -9 -2 -13 13 -59 -2
-59 -19 0 -5 -4 -7 -8 -4 -5 3 -45 -13 -91 -35 -45 -21 -86 -39 -91 -39 -6 0
-10 -4 -10 -10 0 -5 -3 -9 -7 -8 -15 5 -73 -25 -67 -34 3 -5 0 -8 -7 -7 -22 4
-69 -12 -69 -23 0 -5 -4 -6 -10 -3 -5 3 -10 1 -10 -4 0 -6 -3 -10 -7 -9 -13 3
-57 -14 -64 -24 -3 -5 -12 -11 -20 -13 -38 -9 -59 -18 -59 -27 0 -5 -4 -6 -10
-3 -5 3 -10 1 -10 -5 0 -6 -4 -9 -10 -5 -5 3 -33 -6 -62 -20 -80 -40 -83 -42
-80 -56 2 -10 0 -10 -12 1 -9 7 -16 8 -16 3 0 -5 -6 -10 -12 -10 -24 -1 -137
-60 -130 -68 4 -5 1 -5 -7 0 -7 4 -16 3 -20 -4 -4 -6 -16 -13 -27 -15 -22 -5
-137 -56 -144 -65 -3 -3 -14 -8 -25 -9 -11 -2 -27 -10 -35 -17 -8 -7 -28 -15
-43 -19 -15 -4 -25 -11 -22 -15 3 -5 -4 -7 -15 -4 -12 3 -22 -1 -26 -11 -3 -9
-10 -13 -15 -10 -5 3 -9 -43 -9 -105 0 -82 3 -111 13 -111 8 0 7 -4 -3 -10
-13 -9 -7 -14 13 -11 4 0 7 -3 7 -8 0 -12 60 -32 73 -24 6 3 7 1 3 -5 -6 -11
-2 -13 19 -12 3 1 13 -6 21 -15 9 -8 22 -15 29 -15 8 0 30 -9 49 -21 20 -12
36 -17 36 -12 0 4 4 3 8 -3 8 -13 120 -67 140 -67 6 0 12 -4 12 -9 0 -5 4 -6
10 -3 5 3 10 1 10 -5 0 -7 7 -9 16 -6 8 3 13 2 10 -3 -7 -11 74 -42 87 -34 6
3 7 1 4 -4 -6 -9 19 -23 63 -38 3 0 55 -25 115 -55 61 -29 118 -53 128 -52 9
0 15 -3 12 -9 -4 -5 7 -12 24 -15 17 -4 31 -10 31 -14 0 -4 9 -10 20 -13 11
-3 20 0 20 6 0 6 6 2 14 -9 8 -11 49 -35 92 -53 44 -18 110 -49 147 -68 40
-20 75 -32 85 -28 9 3 13 3 9 -1 -8 -8 22 -33 40 -34 8 0 12 44 12 154 l2 154
-33 13 c-18 7 -39 12 -45 12 -7 0 -13 3 -13 8 0 5 -3 8 -7 7 -5 0 -29 9 -56
21 -26 12 -52 19 -59 15 -7 -4 -8 -3 -4 4 7 11 -7 16 -41 15 -7 -1 -10 4 -6
10 4 6 0 8 -10 4 -10 -3 -17 -3 -17 2 0 14 -85 42 -106 35 -13 -4 -15 -3 -6 3
9 7 2 14 -28 26 -23 9 -47 15 -53 13 -7 -1 -8 -1 -3 2 5 3 -13 13 -40 23 -80
31 -87 33 -79 19 5 -9 4 -11 -4 -6 -6 4 -9 11 -7 15 5 8 -212 97 -231 95 -7
-1 -13 2 -13 6 0 12 -139 62 -151 54 -7 -4 -9 -3 -6 3 4 6 -6 16 -21 23 l-27
13 60 28 c33 15 66 28 73 29 7 0 10 5 6 12 -4 6 -3 8 3 5 6 -4 28 0 49 9 72
30 109 46 128 56 10 5 26 11 35 13 40 9 131 52 124 60 -5 4 -3 5 4 1 15 -8
116 38 106 49 -5 4 -2 5 5 1 16 -10 102 21 102 36 0 6 7 8 15 4 8 -3 15 -1 15
5 0 6 3 8 8 5 4 -2 23 3 42 11 19 9 40 17 45 19 6 1 33 12 60 25 28 13 53 22
58 21 4 -1 7 3 7 8 0 5 3 9 8 8 14 -3 92 25 102 37 7 8 9 72 8 164 l-3 150
-25 -13z m-1060 -510 c0 -2 -7 -7 -16 -10 -8 -3 -12 -2 -9 4 6 10 25 14 25 6z
m500 0 c0 -2 -7 -7 -16 -10 -8 -3 -12 -2 -9 4 6 10 25 14 25 6z m-676 -92 c3
-8 2 -12 -4 -9 -6 3 -10 10 -10 16 0 14 7 11 14 -7z m191 -144 c-3 -4 1 -10 7
-13 7 -3 3 -4 -9 -4 -15 1 -19 5 -13 13 6 6 6 15 2 19 -4 5 -1 5 6 1 7 -4 10
-11 7 -16z m60 -258 c-3 -3 -11 0 -18 7 -9 10 -8 11 6 5 10 -3 15 -9 12 -12z
m872 -397 c0 -8 -4 -12 -9 -9 -5 3 -6 10 -3 15 9 13 12 11 12 -6z"/>
<path d="M3430 3247 c0 -1 -1 -69 -2 -151 l-1 -148 32 -14 c18 -7 35 -13 39
-12 4 1 22 -6 40 -16 33 -17 161 -68 357 -141 55 -21 111 -43 125 -50 14 -7
32 -10 40 -7 8 2 12 1 7 -4 -9 -10 83 -46 101 -39 8 3 10 0 6 -7 -5 -7 0 -9
14 -6 12 4 20 2 17 -2 -4 -7 41 -28 78 -36 4 -1 10 -3 15 -4 4 -1 10 -2 15 -1
4 0 7 -3 7 -7 0 -5 6 -9 13 -10 38 -3 54 -9 71 -24 10 -9 32 -20 47 -23 16 -4
43 -14 61 -22 27 -14 29 -17 15 -28 -9 -7 -13 -16 -9 -20 4 -5 2 -5 -5 -1 -7
4 -34 -2 -60 -13 -26 -10 -69 -27 -95 -38 -27 -10 -48 -21 -48 -25 0 -4 -7 -4
-17 -1 -9 4 -14 2 -11 -3 4 -5 -4 -10 -15 -10 -12 -1 -52 -16 -88 -33 -36 -17
-70 -31 -76 -31 -15 0 -203 -76 -199 -81 2 -2 -5 -5 -17 -6 -12 0 -44 -11 -72
-24 -27 -12 -55 -23 -61 -24 -6 -2 -27 -10 -45 -18 -19 -8 -73 -30 -121 -48
-47 -19 -84 -38 -81 -43 4 -5 1 -6 -4 -3 -6 4 -25 1 -43 -7 l-33 -13 -1 -151
c-1 -98 2 -148 9 -144 6 4 15 7 20 8 6 1 31 10 55 21 25 11 64 28 87 38 23 10
40 22 37 26 -3 5 2 6 11 3 9 -4 25 2 36 12 12 11 23 18 25 16 9 -7 94 31 94
41 0 6 3 7 6 4 4 -3 16 -1 28 5 11 7 23 13 26 13 22 4 80 31 80 38 0 4 5 5 10
2 6 -3 10 -1 10 4 0 6 3 10 8 9 18 -4 61 15 55 25 -3 5 -1 7 5 3 9 -5 78 20
92 34 3 3 10 6 15 7 6 1 49 19 98 40 65 28 86 42 82 53 -5 12 -4 12 6 3 9 -9
21 -7 53 9 23 12 46 23 51 24 31 5 146 65 141 73 -3 5 3 7 13 4 10 -3 30 1 42
8 13 7 27 12 32 11 4 -1 7 3 7 8 0 5 3 9 8 8 16 -4 81 26 75 35 -3 6 -1 7 5 3
6 -3 31 3 55 15 l45 22 1 120 c2 105 0 119 -14 113 -9 -3 -13 -2 -10 4 3 5 -7
12 -22 16 -15 4 -30 10 -33 13 -8 10 -94 46 -102 44 -5 -2 -8 1 -8 7 0 5 -7 6
-17 3 -11 -4 -14 -3 -9 5 5 8 2 10 -8 6 -9 -3 -16 -1 -16 4 0 9 -25 22 -50 27
-3 0 -25 11 -50 24 -25 13 -46 23 -47 23 -2 -1 -23 7 -49 18 -25 11 -51 17
-56 13 -7 -4 -8 -1 -3 7 6 10 4 12 -9 7 -10 -4 -15 -3 -11 3 7 12 -40 24 -56
14 -8 -4 -9 -3 -5 4 9 15 -6 16 -21 1 -8 -8 -13 -7 -18 2 -5 8 -4 10 3 5 7 -4
12 -1 12 6 0 19 -53 38 -74 26 -9 -5 -16 -6 -15 -1 3 20 -2 34 -11 28 -5 -3
-10 -1 -10 6 0 8 -5 7 -17 -2 -10 -9 -14 -9 -10 -2 8 12 -30 39 -40 29 -3 -3
-11 0 -17 7 -6 7 -56 32 -111 56 -55 24 -117 52 -137 63 -21 10 -42 16 -48 13
-5 -3 -10 -2 -10 3 0 8 -142 76 -160 77 -3 1 -15 6 -28 14 -19 10 -26 10 -40
-1 -15 -11 -15 -11 -6 2 10 12 4 19 -37 37 -27 12 -49 21 -49 20z m291 -144
c13 -16 12 -17 -3 -4 -17 13 -22 21 -14 21 2 0 10 -8 17 -17z m714 -321 c-3
-3 -11 0 -18 7 -9 10 -8 11 6 5 10 -3 15 -9 12 -12z"/>
</g>
</svg>
