<?xml version="1.0" standalone="no"?>
<!DOCTYPE svg PUBLIC "-//W3C//DTD SVG 1.1//EN" "http://www.w3.org/Graphics/SVG/1.1/DTD/svg11.dtd">
<svg class="logo" xmlns="http://www.w3.org/2000/svg" xmlns:xlink="http://www.w3.org/1999/xlink" width="375" zoomAndPan="magnify" viewBox="0 0 375 374.999991" height="375" preserveAspectRatio="xMidYMid meet" version="1.0">
    <defs>
        <g/>
    </defs>
    <g fill="#009ba6" fill-opacity="1">
        <g transform="translate(4.513235, 259.856149)">
            <g>
                <path d="M 10.921875 -55.609375 C 5.660156 -58.160156 3.03125 -62.804688 3.03125 -69.546875 C 3.03125 -76.285156 5.726562 -81.003906 11.125 -83.703125 C 57.351562 -111.066406 83.90625 -126.835938 90.78125 -131.015625 C 97.65625 -135.191406 101.765625 -137.484375 103.109375 -137.890625 C 104.597656 -138.566406 106.351562 -138.90625 108.375 -138.90625 C 112.007812 -138.90625 115.78125 -135.601562 119.6875 -129 C 122.25 -124.820312 123.53125 -121.6875 123.53125 -119.59375 C 123.53125 -117.5 123.0625 -115.710938 122.125 -114.234375 C 120.90625 -112.078125 118.140625 -109.582031 113.828125 -106.75 C 73.660156 -83.03125 52.769531 -70.628906 51.15625 -69.546875 L 113.828125 -32.34375 C 116.390625 -30.863281 118.210938 -29.648438 119.296875 -28.703125 C 122.253906 -26.285156 123.734375 -23.660156 123.734375 -20.828125 C 123.734375 -18.128906 122.550781 -14.859375 120.1875 -11.015625 C 117.832031 -7.171875 115.710938 -4.441406 113.828125 -2.828125 C 111.941406 -1.210938 109.988281 -0.40625 107.96875 -0.40625 C 105.269531 -0.40625 101.765625 -1.6875 97.453125 -4.25 Z M 10.921875 -55.609375 "/>
            </g>
        </g>
    </g>
    <g fill="#009ba6" fill-opacity="1">
        <g transform="translate(134.308732, 259.856149)">
            <g>
                <path d="M 35.578125 1.625 C 34.503906 3.914062 33.660156 5.597656 33.046875 6.671875 C 32.441406 7.753906 31.429688 8.800781 30.015625 9.8125 C 28.609375 10.820312 26.757812 11.328125 24.46875 11.328125 C 22.175781 11.328125 18.804688 10.3125 14.359375 8.28125 C 9.910156 6.257812 6.910156 4.472656 5.359375 2.921875 C 3.804688 1.378906 3.03125 -0.332031 3.03125 -2.21875 C 3.03125 -4.113281 3.835938 -7.484375 5.453125 -12.328125 L 70.5625 -148.40625 C 73.125 -153.53125 75.414062 -156.492188 77.4375 -157.296875 C 78.519531 -157.835938 80.101562 -158.109375 82.1875 -158.109375 C 84.28125 -158.109375 87.6875 -157.03125 92.40625 -154.875 C 99.675781 -151.375 103.3125 -147.53125 103.3125 -143.34375 C 103.3125 -141.59375 102.367188 -138.222656 100.484375 -133.234375 Z M 35.578125 1.625 "/>
            </g>
        </g>
    </g>
    <g fill="#009ba6" fill-opacity="1">
        <g transform="translate(243.684725, 259.856149)">
            <g>
                <path d="M 115.453125 -83.703125 C 120.835938 -81.003906 123.53125 -76.285156 123.53125 -69.546875 C 123.53125 -62.804688 120.90625 -58.160156 115.65625 -55.609375 L 29.3125 -4.25 C 22.4375 0.195312 16.910156 0.671875 12.734375 -2.828125 C 10.847656 -4.441406 8.894531 -6.867188 6.875 -10.109375 C 4.175781 -14.554688 2.828125 -17.789062 2.828125 -19.8125 C 2.828125 -21.832031 3.234375 -23.585938 4.046875 -25.078125 C 5.523438 -27.367188 8.421875 -29.789062 12.734375 -32.34375 L 75.625 -69.546875 L 12.9375 -106.75 C 10.507812 -108.238281 8.691406 -109.453125 7.484375 -110.390625 C 4.515625 -112.953125 3.03125 -115.71875 3.03125 -118.6875 C 3.03125 -121.382812 4.175781 -124.617188 6.46875 -128.390625 C 10.644531 -135.398438 14.554688 -138.90625 18.203125 -138.90625 C 21.429688 -138.90625 25.066406 -137.625 29.109375 -135.0625 Z M 115.453125 -83.703125 "/>
            </g>
        </g>
    </g>
</svg>